<svg xmlns="http://www.w3.org/2000/svg" width="117" height="166">
  <desc>
    Logo for Highlighter Lom
  </desc>
  <g fill="none" fill-rule="evenodd">
    <path fill="#0A0A08" d="M112.17 165.3v-.78l1.27-.1c.2-.02.23-.1.23-.3v-7.44l-3.22 6.06h-1.24l-3.2-6.08v7.45c0 .3 0 .3.3.3l1.4.2v.8h-4v-.7l1-.1c.2 0 .3-.1.3-.2V156c0-.23 0-.27-.2-.3l-.9-.1v-.8h2.7l3.6 7 3.7-7h2.7v.8l-1 .1c-.2.03-.2.1-.2.36v8.3c0 .2.1.24.3.26l1 .13v.77h-4zm-11.98-5.44c0-2.87-1.5-4.4-3.7-4.4-2.3 0-3.9 1.55-3.9 4.42 0 2.98 1.5 4.5 3.8 4.5 2.2 0 3.8-1.44 3.8-4.52zm-9 .02c0-3.14 1.8-5.5 5.3-5.5s5 2.36 5 5.34c0 3.5-1.8 5.75-5.2 5.75-3.5 0-5.1-2.32-5.1-5.6zm-11.7 5.42v-.86l1.2-.14c.3-.04.3-.1.3-.4v-11.3c0-.3-.1-.38-.3-.4l-1.3-.14v-.88h4.8v.88l-1.6.16c-.3 0-.3.1-.3.37v11.6h5.5c.2 0 .2 0 .3-.2l.3-1.7h1v3h-10zm32-30c1.4 0 2.7-.44 2.7-2.15 0-1.54-1.1-1.9-3-1.9H110v4.06h1.47zm1.6 5.63v-.78l1-.08-1.3-3.16c-.2-.4-.5-.5-1.1-.5H110v3.4c0 .2.02.3.25.3l1 .1v.8h-3.75v-.8l.96-.1c.12 0 .2-.1.2-.3v-8.3c0-.2-.05-.3-.26-.3l-.97-.1v-.8h4.6c2.76 0 3.44 1.5 3.44 2.9 0 1.6-.88 2.5-2.13 2.9.5.2.7.8 1.02 1.6l.9 2.2c.1.2.22.3.45.3l.9.2v.8H113zm-15.6 0v-.78l.9-.1c.2-.04.2-.08.2-.3v-8.35c0-.24-.1-.28-.3-.3l-1-.1v-.8h7.6v2.4l-1-.04-.2-1.15c-.1-.1-.1-.1-.3-.1H100v3.7h4.1v1.1H100v3.9h4c.15 0 .2 0 .23-.1l.25-1.3h.96v2.5H97.5zm-8.8 0v-.8l1.5-.1c.2-.02.2-.08.2-.3v-8.5H88c-.2 0-.22 0-.26.15l-.2 1.28h-.95v-2.45h9v2.5h-1l-.3-1.3c0-.1-.1-.1-.2-.1h-2.4v8.5c0 .2 0 .3.2.3l1.6.2v.8h-5zm-7.5 0v-.78l.9-.1c.2-.04.3-.08.3-.3v-3.83h-5.3v3.82c0 .23 0 .27.2.3l1 .1v.8h-3.8v-.8l.9-.1c.2-.03.2-.07.2-.28v-8.38c0-.22-.1-.28-.3-.3l-.9-.1v-.77h3.8v.8l-1 .1c-.2.1-.3.1-.3.3v3.5h5.3v-3.5c0-.2-.1-.3-.3-.3l-.9-.1v-.7h4v.8l-1 .1c-.3 0-.3.1-.3.3v8.4c0 .3 0 .3.23.3l1 .1v.8h-3.8zm-9.1-4.14c-.1 0-.2 0-.2.2v3.5c-.9.4-2.4.6-3.6.6-4.1 0-5.7-2.4-5.7-5.6 0-3.2 1.8-5.5 5.4-5.5 1.3 0 2.6.3 3.4.8v2.3l-1-.1-.3-1.3c0-.3-.1-.4-.3-.5-.5-.2-1.3-.3-2-.3-2.5 0-4 1.6-4 4.4 0 2.9 1.6 4.5 4.3 4.5.7 0 1.6-.1 2.1-.3.1-.1.2-.2.2-.4v-2.6h-2.1l.1-1h4.1v.8h-.66zm-15.5 4.1v-.8l1.1-.1c.2 0 .2-.1.2-.3v-8.4c0-.2-.1-.3-.3-.3l-1.1-.1v-.8h4v.8l-1.2.1c-.3 0-.3 0-.3.3v8.3c0 .2 0 .2.2.3l1.1.1v.8h-4.1zm-9.8 0v-.8l.9-.1c.2 0 .2-.1.2-.3v-8.4c0-.3-.1-.3-.3-.3l-1-.1v-.8h4v.8l-1.28.1c-.23 0-.24 0-.24.3v8.5h4c.2 0 .26 0 .3-.2l.2-1.4h1v2.5H47zm-6 0v-.8l.9-.1c.2-.1.2-.1.2-.3v-3.9h-5.3v3.8c0 .2 0 .2.2.3l1 .1v.8h-3.7v-.8l.9-.1c.2-.1.2-.1.2-.3v-8.4c0-.2-.07-.3-.28-.3l-1-.1v-.8h4v.8l-1 .1c-.2 0-.2 0-.2.2v3.5h5.4v-3.5c0-.2-.1-.3-.3-.3l-.97-.1v-.7h3.8v.8l-1 .1c-.27 0-.27 0-.27.3v8.3c0 .2 0 .3.2.3l1 .1v.8H41zm-9-4.2c-.2 0-.3 0-.3.2v3.5c-.9.4-2.4.6-3.6.6-4.1 0-5.6-2.4-5.6-5.6 0-3.2 1.8-5.5 5.4-5.5 1.3 0 2.6.3 3.4.8v2.3l-1-.1-.3-1.3c0-.3-.1-.4-.3-.5-.5-.2-1.26-.3-2-.3-2.48 0-4 1.6-4 4.4 0 2.9 1.6 4.5 4.3 4.5.7 0 1.63-.1 2.05-.3.15 0 .2-.1.2-.3v-2.6H28l.17-1h4.1v.8H32zm-15.6 4.1v-.8l1.1-.1c.2-.1.2-.1.2-.3v-8.4c0-.2-.1-.3-.3-.3l-1.1-.1v-.8h4v.8l-1.2.1c-.3 0-.3 0-.3.3v8.3c0 .3 0 .3.2.3l1.2.1v.8h-4zm-7.1 0v-.8l1.2-.2c.2 0 .3-.1.3-.4v-5.3h-7v5.3c0 .3 0 .3.3.4l1.3.1v.8H.8v-.8l1.23-.2c.27 0 .3-.1.3-.4V128c0-.3-.03-.35-.3-.4l-1.23-.1v-.85h4.46v.9l-1.3.15c-.3.05-.32.1-.32.4v4.9h7.26v-4.9c0-.3-.04-.35-.3-.4l-1.24-.1v-.87h4.46v.84l-1.3.14c-.3 0-.32 0-.32.3v11.4c0 .3.02.3.32.4l1.3.2v.9H9.36z"/>
    <path fill="#33B8C8" d="M116.74 116.8v-58l-58 29 58 29m0-58V.8l-58 29 58 29"/>
    <path fill="#D02330" d="M.73 116.8l58-29-58-29v58m0-116v58l58-29-58-29"/>
    <path fill="#12110F" d="M.73 58.8l58 29 58-29-58-29-58 29"/>
    <path fill="#FFF" d="M47.58 66.97h2.63l.2-20.13h-2.8V45.4H55v1.44h-2.8l-.08 9.4h13.22l.07-9.4h-2.8V45.4H70v1.44h-2.7l-.14 20.13h2.76v1.44h-7.4V67h2.76l.05-9.28H52.1L52.06 67h2.9v1.43h-7.38V67"/>
  </g>
</svg>
