<?xml version="1.0" encoding="UTF-8"?>
<svg width="117px" height="166px" viewBox="0 0 117 166" version="1.1" xmlns="http://www.w3.org/2000/svg" xmlns:xlink="http://www.w3.org/1999/xlink">
    <!-- Generator: Sketch 41.2 (35397) - http://www.bohemiancoding.com/sketch -->
    <title>highlighter</title>
    <desc>Created with Sketch.</desc>
    <defs></defs>
    <g id="Page-1" stroke="none" stroke-width="1" fill="none" fill-rule="evenodd">
        <g id="Highlighter_RGB-Logo-Color">
            <path d="M112.169,165.298 L112.169,164.518 L113.437,164.42 C113.632,164.401 113.671,164.323 113.671,164.128 L113.671,156.68 L110.454,162.744 L109.206,162.744 L106.008,156.661 L106.008,164.108 C106.008,164.343 106.008,164.381 106.242,164.401 L107.568,164.518 L107.568,165.298 L103.591,165.298 L103.591,164.518 L104.546,164.42 C104.741,164.401 104.8,164.343 104.8,164.147 L104.8,155.764 C104.8,155.53 104.761,155.491 104.546,155.472 L103.591,155.354 L103.591,154.574 L106.32,154.574 L109.869,161.554 L113.495,154.574 L116.225,154.574 L116.225,155.354 L115.211,155.472 C114.997,155.491 114.958,155.569 114.958,155.822 L114.958,164.128 C114.958,164.323 115.016,164.381 115.211,164.401 L116.225,164.518 L116.225,165.298 L112.169,165.298 Z M100.186,159.858 C100.186,156.992 98.762,155.472 96.521,155.472 C94.239,155.472 92.621,157.012 92.621,159.877 C92.621,162.861 94.122,164.381 96.403,164.381 C98.665,164.381 100.186,162.939 100.186,159.858 Z M91.256,159.877 C91.256,156.739 93.089,154.379 96.54,154.379 C99.991,154.379 101.531,156.739 101.531,159.722 C101.531,163.212 99.796,165.473 96.325,165.473 C92.816,165.473 91.256,163.153 91.256,159.877 Z M79.506,165.298 L79.506,164.439 L80.735,164.303 C81.008,164.265 81.046,164.206 81.046,163.914 L81.046,152.585 C81.046,152.293 81.008,152.215 80.735,152.196 L79.506,152.059 L79.506,151.182 L84.283,151.182 L84.283,152.059 L82.665,152.215 C82.373,152.234 82.353,152.313 82.353,152.585 L82.353,164.206 L87.89,164.206 C88.104,164.206 88.163,164.186 88.202,163.992 L88.514,162.295 L89.489,162.295 L89.489,165.298 L79.506,165.298 Z M111.492,135.313 C112.974,135.313 114.202,134.865 114.202,133.149 C114.202,131.609 113.169,131.239 111.259,131.239 L110.03,131.239 L110.03,135.313 L111.492,135.313 Z M113.091,140.929 L113.091,140.149 L114.125,140.071 L112.837,136.913 C112.662,136.503 112.331,136.347 111.804,136.347 L110.03,136.347 L110.03,139.74 C110.03,139.974 110.05,139.993 110.284,140.032 L111.277,140.149 L111.277,140.929 L107.534,140.929 L107.534,140.149 L108.49,140.051 C108.666,140.032 108.743,139.974 108.743,139.759 L108.743,131.395 C108.743,131.161 108.704,131.103 108.49,131.103 L107.534,130.985 L107.534,130.206 L112.136,130.206 C114.885,130.206 115.567,131.687 115.567,133.091 C115.567,134.689 114.69,135.567 113.442,135.996 C113.949,136.211 114.125,136.756 114.456,137.536 L115.353,139.72 C115.45,139.934 115.586,139.974 115.821,139.993 L116.737,140.149 L116.737,140.929 L113.091,140.929 Z M97.539,140.929 L97.539,140.149 L98.495,140.051 C98.709,140.012 98.748,139.974 98.748,139.759 L98.748,131.395 C98.748,131.161 98.709,131.122 98.495,131.103 L97.539,130.985 L97.539,130.206 L105.143,130.206 L105.143,132.604 L104.168,132.564 L103.954,131.414 C103.915,131.258 103.856,131.22 103.7,131.22 L100.055,131.22 L100.055,135.002 L104.168,135.002 L104.168,136.035 L100.055,136.035 L100.055,139.915 L104.032,139.915 C104.188,139.915 104.246,139.896 104.266,139.759 L104.519,138.453 L105.475,138.453 L105.475,140.929 L97.539,140.929 Z M88.772,140.929 L88.772,140.129 L90.332,140.032 C90.546,140.012 90.585,139.954 90.585,139.74 L90.585,131.22 L88.168,131.22 C87.992,131.22 87.953,131.239 87.915,131.375 L87.681,132.662 L86.725,132.662 L86.725,130.206 L95.771,130.206 L95.771,132.662 L94.816,132.662 L94.563,131.375 C94.543,131.239 94.504,131.22 94.329,131.22 L91.892,131.22 L91.892,139.74 C91.892,139.954 91.911,140.012 92.126,140.012 L93.803,140.129 L93.803,140.929 L88.772,140.929 Z M81.253,140.929 L81.253,140.149 L82.209,140.051 C82.423,140.012 82.462,139.974 82.462,139.759 L82.462,135.918 L77.12,135.918 L77.12,139.74 C77.12,139.974 77.14,140.012 77.354,140.032 L78.388,140.149 L78.388,140.929 L74.605,140.929 L74.605,140.149 L75.56,140.051 C75.774,140.012 75.813,139.974 75.813,139.759 L75.813,131.375 C75.813,131.161 75.774,131.103 75.56,131.083 L74.605,130.985 L74.605,130.206 L78.388,130.206 L78.388,130.985 L77.354,131.103 C77.14,131.122 77.12,131.161 77.12,131.375 L77.12,134.885 L82.462,134.885 L82.462,131.375 C82.462,131.161 82.423,131.103 82.209,131.083 L81.253,130.985 L81.253,130.206 L85.016,130.206 L85.016,130.985 L84.002,131.103 C83.768,131.122 83.768,131.161 83.768,131.375 L83.768,139.74 C83.768,139.974 83.768,140.012 84.002,140.032 L85.016,140.149 L85.016,140.929 L81.253,140.929 Z M72.213,136.795 C72.038,136.815 71.979,136.854 71.979,137.01 L71.979,140.5 C71.044,140.948 69.581,141.104 68.353,141.104 C64.239,141.104 62.719,138.726 62.719,135.489 C62.719,132.351 64.513,130.011 68.158,130.011 C69.484,130.011 70.771,130.303 71.551,130.81 L71.551,133.13 L70.576,133.071 L70.322,131.785 C70.284,131.551 70.245,131.453 70.049,131.375 C69.562,131.2 68.821,131.083 68.08,131.083 C65.643,131.083 64.084,132.682 64.084,135.489 C64.084,138.433 65.663,140.032 68.431,140.032 C69.113,140.032 70.049,139.954 70.478,139.798 C70.634,139.74 70.673,139.642 70.673,139.447 L70.673,136.893 L68.568,136.893 L68.743,135.938 L72.857,135.938 L72.857,136.737 L72.213,136.795 Z M56.662,140.929 L56.662,140.149 L57.773,140.051 C57.987,140.032 58.026,139.974 58.026,139.759 L58.026,131.375 C58.026,131.161 57.987,131.103 57.773,131.083 L56.662,130.985 L56.662,130.206 L60.736,130.206 L60.736,130.985 L59.566,131.103 C59.352,131.122 59.332,131.161 59.332,131.375 L59.332,139.74 C59.332,139.974 59.352,140.012 59.566,140.032 L60.736,140.149 L60.736,140.929 L56.662,140.929 Z M46.919,140.929 L46.919,140.149 L47.875,140.051 C48.089,140.032 48.128,139.934 48.128,139.759 L48.128,131.395 C48.128,131.161 48.089,131.103 47.875,131.103 L46.919,130.985 L46.919,130.206 L50.936,130.206 L50.936,130.985 L49.668,131.103 C49.454,131.122 49.435,131.18 49.435,131.395 L49.435,139.915 L53.412,139.915 C53.568,139.915 53.626,139.896 53.646,139.759 L53.899,138.414 L54.855,138.414 L54.855,140.929 L46.919,140.929 Z M40.98,140.929 L40.98,140.149 L41.936,140.051 C42.15,140.012 42.189,139.974 42.189,139.759 L42.189,135.918 L36.847,135.918 L36.847,139.74 C36.847,139.974 36.866,140.012 37.081,140.032 L38.114,140.149 L38.114,140.929 L34.332,140.929 L34.332,140.149 L35.287,140.051 C35.502,140.012 35.54,139.974 35.54,139.759 L35.54,131.375 C35.54,131.161 35.502,131.103 35.287,131.083 L34.332,130.985 L34.332,130.206 L38.114,130.206 L38.114,130.985 L37.081,131.103 C36.866,131.122 36.847,131.161 36.847,131.375 L36.847,134.885 L42.189,134.885 L42.189,131.375 C42.189,131.161 42.15,131.103 41.936,131.083 L40.98,130.985 L40.98,130.206 L44.743,130.206 L44.743,130.985 L43.729,131.103 C43.495,131.122 43.495,131.161 43.495,131.375 L43.495,139.74 C43.495,139.974 43.495,140.012 43.729,140.032 L44.743,140.149 L44.743,140.929 L40.98,140.929 Z M31.94,136.795 C31.765,136.815 31.706,136.854 31.706,137.01 L31.706,140.5 C30.771,140.948 29.308,141.104 28.08,141.104 C23.966,141.104 22.445,138.726 22.445,135.489 C22.445,132.351 24.239,130.011 27.885,130.011 C29.21,130.011 30.498,130.303 31.277,130.81 L31.277,133.13 L30.303,133.071 L30.049,131.785 C30.01,131.551 29.971,131.453 29.776,131.375 C29.289,131.2 28.548,131.083 27.807,131.083 C25.37,131.083 23.81,132.682 23.81,135.489 C23.81,138.433 25.389,140.032 28.158,140.032 C28.84,140.032 29.776,139.954 30.205,139.798 C30.361,139.74 30.4,139.642 30.4,139.447 L30.4,136.893 L28.294,136.893 L28.47,135.938 L32.584,135.938 L32.584,136.737 L31.94,136.795 Z M16.388,140.929 L16.388,140.149 L17.5,140.051 C17.714,140.032 17.753,139.974 17.753,139.759 L17.753,131.375 C17.753,131.161 17.714,131.103 17.5,131.083 L16.388,130.985 L16.388,130.206 L20.463,130.206 L20.463,130.985 L19.293,131.103 C19.079,131.122 19.059,131.161 19.059,131.375 L19.059,139.74 C19.059,139.974 19.079,140.012 19.293,140.032 L20.463,140.149 L20.463,140.929 L16.388,140.929 Z M9.357,140.929 L9.357,140.071 L10.585,139.934 C10.858,139.896 10.897,139.837 10.897,139.544 L10.897,134.183 L3.644,134.183 L3.644,139.525 C3.644,139.837 3.664,139.876 3.957,139.915 L5.263,140.071 L5.263,140.929 L0.798,140.929 L0.798,140.071 L2.026,139.934 C2.299,139.896 2.338,139.837 2.338,139.544 L2.338,128.197 C2.338,127.905 2.299,127.827 2.026,127.807 L0.798,127.671 L0.798,126.813 L5.263,126.813 L5.263,127.671 L3.957,127.827 C3.664,127.866 3.644,127.905 3.644,128.197 L3.644,133.091 L10.897,133.091 L10.897,128.197 C10.897,127.905 10.858,127.827 10.585,127.807 L9.357,127.671 L9.357,126.813 L13.822,126.813 L13.822,127.671 L12.516,127.827 C12.223,127.866 12.204,127.905 12.204,128.197 L12.204,139.525 C12.204,139.837 12.223,139.876 12.516,139.915 L13.822,140.071 L13.822,140.929 L9.357,140.929 L9.357,140.929 Z" id="Fill-1" fill="#0A0A08"></path>
            <polyline id="Fill-2" fill="#33B8C8" points="116.737 116.813 116.737 58.81 58.733 87.811 116.737 116.813"></polyline>
            <polyline id="Fill-3" fill="#33B8C8" points="116.737 58.81 116.737 0.807 58.733 29.808 116.737 58.81"></polyline>
            <polyline id="Fill-4" fill="#D02330" points="0.73 116.813 58.733 87.811 0.73 58.81 0.73 116.813"></polyline>
            <polyline id="Fill-5" fill="#D02330" points="0.73 0.807 0.73 58.81 58.733 29.808 0.73 0.807"></polyline>
            <polyline id="Fill-6" fill="#12110F" points="0.73 58.81 58.733 87.811 116.737 58.81 58.733 29.808 0.73 58.81"></polyline>
            <polyline id="Fill-7" fill="#FFFFFF" points="47.583 66.967 50.214 66.967 50.346 46.837 47.583 46.837 47.583 45.39 54.951 45.39 54.951 46.837 52.187 46.837 52.122 56.244 65.344 56.244 65.411 46.837 62.516 46.837 62.516 45.39 69.884 45.39 69.884 46.837 67.252 46.837 67.121 66.967 69.884 66.967 69.884 68.414 62.516 68.414 62.516 66.967 65.279 66.967 65.344 57.691 52.122 57.691 52.056 66.967 54.951 66.967 54.951 68.414 47.583 68.414 47.583 66.967"></polyline>
        </g>
    </g>
</svg>