<?xml version="1.0" encoding="utf-8"?>
<!-- Generator: Adobe Illustrator 16.0.4, SVG Export Plug-In . SVG Version: 6.00 Build 0)  -->
<!DOCTYPE svg PUBLIC "-//W3C//DTD SVG 1.1//EN" "http://www.w3.org/Graphics/SVG/1.1/DTD/svg11.dtd">
<svg version="1.1" id="Layer_1" xmlns="http://www.w3.org/2000/svg" xmlns:xlink="http://www.w3.org/1999/xlink" x="0px" y="0px"
	 width="60px" height="60px" viewBox="0 0 60 60" enable-background="new 0 0 60 60" xml:space="preserve">
<g>
	<rect fill="#FFFFFF" width="60" height="60"/>
	<rect x="5" y="5" fill="#FFFFFF" width="50" height="50"/>
	<g>
		<polygon fill="#FFCA05" points="23.39,21.826 19.092,24.371 26.833,24.371 		"/>
		<path fill="#F52612" d="M31.046,12.364c-1.188-0.012-2.377,0.163-3.533,0.52c-1.805,0.556-3.459,1.543-4.92,2.93
			c-3.509,3.334-3.519,7.91-3.501,8.559l1.625-0.96l2.675-1.583c0.055-0.219,0.611-2.188,2.723-3.864
			c2.066-1.642,4.565-1.856,4.931-1.878L31.046,12.364L31.046,12.364z"/>
		<polygon fill="#0064D2" points="42.294,40.941 29.81,40.941 22.765,44.752 39.164,44.752 42.294,48.419 		"/>
		<path fill="#30B32B" d="M39.348,24.317c0-4.547-3.717-8.232-8.302-8.232v3.791c2.476,0,4.478,1.99,4.478,4.443
			c0,0.887-0.264,1.711-0.717,2.404c-0.222,0.308-0.518,0.643-0.918,1.027l-5.593,4.327c-4.052,3.084-6.479,6.408-6.852,6.963
			c-0.664,0.99-1.562,2.5-2.2,4.174c-0.702,1.854-1.112,3.648-1.158,5.077l4.681-3.54c0.06-0.234,0.643-2.417,2.78-4.947
			c2.249-2.668,4.021-3.979,5.443-5.037c0.316-0.236,0.619-0.461,0.908-0.686c0.219-0.17,0.547-0.405,0.929-0.684
			c0.979-0.703,2.378-1.712,3.521-2.742C38.18,29.144,39.348,26.866,39.348,24.317z"/>
	</g>
</g>
</svg>
