<?xml version="1.0" encoding="UTF-8"?>
<svg width="117px" height="57px" viewBox="0 0 117 57" version="1.1" xmlns="http://www.w3.org/2000/svg" xmlns:xlink="http://www.w3.org/1999/xlink">
    <!-- Generator: Sketch 41.2 (35397) - http://www.bohemiancoding.com/sketch -->
    <title>unimicro</title>
    <desc>Created with Sketch.</desc>
    <defs></defs>
    <g id="Page-1" stroke="none" stroke-width="1" fill="none" fill-rule="evenodd">
        <g id="unimicro_bleed">
            <path d="M0.872,51.674 L0.872,0.263 L116.846,0.263 L116.846,55.703 C116.846,55.703 74.921,60.487 0.872,51.674" id="Fill-1" fill="#0089BD"></path>
            <path d="M28.191,36.377 C27.298,36.516 26.254,36.586 25.063,36.586 C23.263,36.586 21.919,36.292 21.031,35.701 C20.144,35.113 19.7,34.152 19.7,32.822 L19.7,26.051 L23.808,26.051 L23.808,33.087 C23.808,33.379 23.903,33.63 24.093,33.84 C24.284,34.049 24.626,34.152 25.12,34.152 C25.386,34.152 25.615,34.136 25.805,34.104 C25.995,34.072 26.159,34.026 26.299,33.962 L26.299,26.051 L30.407,26.051 L30.407,35.809 C29.823,36.048 29.084,36.238 28.191,36.377" id="Fill-3" fill="#FFFFFF"></path>
            <path d="M39.192,36.301 L39.192,29.208 C39.192,28.802 39.057,28.501 38.784,28.306 C38.511,28.108 38.134,28.01 37.652,28.01 C37.437,28.01 37.236,28.026 37.053,28.058 C36.869,28.09 36.708,28.123 36.568,28.162 L36.568,36.301 L32.46,36.301 L32.46,26.546 C33.083,26.317 33.846,26.13 34.752,25.985 C35.659,25.839 36.651,25.766 37.728,25.766 C39.656,25.766 41.066,26.048 41.959,26.612 C42.854,27.176 43.3,28.03 43.3,29.17 L43.3,36.301 L39.192,36.301" id="Fill-4" fill="#FFFFFF"></path>
            <path d="M45.411,36.301 L49.519,36.301 L49.519,26.051 L45.411,26.051 L45.411,36.301 Z M49.652,23.084 C49.652,23.313 49.596,23.528 49.481,23.731 C49.366,23.934 49.208,24.108 49.005,24.254 C48.803,24.4 48.568,24.518 48.301,24.605 C48.036,24.695 47.75,24.739 47.446,24.739 C47.142,24.739 46.856,24.695 46.591,24.605 C46.324,24.518 46.092,24.4 45.896,24.254 C45.699,24.108 45.544,23.934 45.431,23.731 C45.316,23.528 45.259,23.313 45.259,23.084 C45.259,22.856 45.316,22.641 45.431,22.438 C45.544,22.236 45.699,22.061 45.896,21.915 C46.092,21.77 46.324,21.652 46.591,21.563 C46.856,21.475 47.142,21.43 47.446,21.43 C47.75,21.43 48.036,21.475 48.301,21.563 C48.568,21.652 48.803,21.77 49.005,21.915 C49.208,22.061 49.366,22.236 49.481,22.438 C49.596,22.641 49.652,22.856 49.652,23.084 L49.652,23.084 Z" id="Fill-5" fill="#FFFFFF"></path>
            <path d="M66.157,36.301 L66.157,28.79 C66.157,27.65 65.319,26.508 63.305,26.508 C62.105,26.508 61.043,26.869 60.225,27.65 L60.225,36.301 L59.197,36.301 L59.197,28.695 C59.197,27.402 58.058,26.508 56.022,26.508 C54.824,26.508 53.91,26.68 53.265,26.946 L53.265,36.301 L52.238,36.301 L52.238,26.508 C53.132,26.128 54.521,25.805 56.098,25.805 C57.923,25.805 59.026,26.299 59.769,27.136 C60.642,26.318 61.898,25.805 63.438,25.805 C66.347,25.805 67.183,27.517 67.183,28.751 L67.183,36.301 L66.157,36.301" id="Fill-6" fill="#FFFFFF"></path>
            <path d="M70.265,36.301 L71.293,36.301 L71.293,26.051 L70.265,26.051 L70.265,36.301 Z M70.778,23.941 C70.361,23.941 70.037,23.618 70.037,23.2 C70.037,22.781 70.361,22.458 70.778,22.458 C71.199,22.458 71.521,22.781 71.521,23.2 C71.521,23.618 71.199,23.941 70.778,23.941 L70.778,23.941 Z" id="Fill-7" fill="#FFFFFF"></path>
            <path d="M78.501,36.549 C75.932,36.549 73.957,34.419 73.957,31.186 C73.957,27.859 75.896,25.805 78.596,25.805 C79.926,25.805 80.764,26.166 81.219,26.508 L80.896,27.155 C80.516,26.908 79.755,26.565 78.784,26.565 C76.256,26.565 75.002,28.561 75.002,31.111 C75.002,33.773 76.465,35.731 78.729,35.731 C79.621,35.731 80.363,35.445 80.858,35.143 L81.219,35.844 C80.764,36.186 79.773,36.549 78.501,36.549" id="Fill-8" fill="#FFFFFF"></path>
            <path d="M87.932,26.68 C86.847,26.451 85.193,26.508 84.471,26.964 L84.471,36.301 L83.443,36.301 L83.443,26.508 C84.623,26.051 85.669,25.805 87.685,25.805 C87.873,25.805 88.141,25.824 88.274,25.824 L87.932,26.68" id="Fill-9" fill="#FFFFFF"></path>
            <path d="M93.58,26.508 C90.859,26.508 90.063,28.999 90.063,31.204 C90.063,33.41 90.917,35.789 93.58,35.789 C96.3,35.789 97.097,33.41 97.097,31.204 C97.097,28.999 96.3,26.508 93.58,26.508 Z M93.58,36.549 C90.385,36.549 89.035,34.172 89.035,31.186 C89.035,28.201 90.385,25.805 93.58,25.805 C96.773,25.805 98.124,28.201 98.124,31.186 C98.124,34.172 96.773,36.549 93.58,36.549 L93.58,36.549 Z" id="Fill-10" fill="#FFFFFF"></path>
        </g>
    </g>
</svg>