<?xml version="1.0" encoding="UTF-8"?>
<svg width="51px" height="96px" viewBox="0 0 51 96" version="1.1" xmlns="http://www.w3.org/2000/svg" xmlns:xlink="http://www.w3.org/1999/xlink">
    <!-- Generator: Sketch 41.2 (35397) - http://www.bohemiancoding.com/sketch -->
    <title>wolftech</title>
    <desc>Created with Sketch.</desc>
    <defs></defs>
    <g id="Page-1" stroke="none" stroke-width="1" fill="none" fill-rule="evenodd">
        <g id="Wolftech_RGB-Color-NoType-Open-Small" fill="#EC6932">
            <g id="Layer_1">
                <path d="M0,0 L0,95.3291016 L50.0306895,83.9367187 L50.0306895,0 L0,0 Z M13.7869873,63.983496 C13.7869873,64.3107422 13.624656,64.5867187 13.4255649,64.5996091 L9.25729655,64.8697262 C9.08731929,64.8808589 8.95057255,64.646484 8.95057255,64.3467768 L8.95057255,58.8711907 C8.95057255,58.5714835 9.08731881,58.3022453 9.25729655,58.2703118 L13.4255649,57.4801752 C13.624656,57.4426752 13.7869873,57.6770501 13.7869873,58.0045891 L13.7869873,63.983496 Z M13.7869873,54.2015626 C13.7869873,54.5291016 13.624656,54.8285155 13.4255649,54.8704104 L9.25729655,55.747559 C9.08731929,55.7833008 8.95057255,55.5691406 8.95057255,55.2694334 L8.95057255,49.7935546 C8.95057255,49.4938474 9.08731881,49.2049805 9.25729655,49.1481446 L13.4255649,47.7512698 C13.624656,47.684473 13.7869873,47.8954104 13.7869873,48.2229494 L13.7869873,54.2015626 Z M13.7869873,44.4199219 C13.7869873,44.7471682 13.624656,45.0703123 13.4255649,45.1412112 L9.25729655,46.6253904 C9.08731929,46.6857422 8.95057255,46.491504 8.95057255,46.1917968 L8.95057255,40.7162107 C8.95057255,40.4162107 9.08731881,40.1074214 9.25729655,40.0256832 L13.4255649,38.0220701 C13.624656,37.9262693 13.7869873,38.1137693 13.7869873,38.4410155 L13.7869873,44.4199219 Z M21.1948243,63.3682618 C21.1948243,63.7318358 20.9945571,64.0397462 20.7492952,64.0555666 L15.6523271,64.3860355 C15.4464723,64.3992192 15.2806121,64.1425786 15.2806121,63.8126957 L15.2806121,57.7854494 C15.2806121,57.4555666 15.4464723,57.1564454 15.6523271,57.1174805 L20.7492952,56.1518554 C20.9945566,56.1052733 21.1948243,56.3622067 21.1948243,56.7257813 L21.1948243,63.3682618 Z M21.1948243,52.5079099 C21.1948243,52.871484 20.9945571,53.2083984 20.7492952,53.2602538 L15.6523271,54.3328123 C15.4464723,54.3758789 15.2806121,54.1435546 15.2806121,53.8133789 L15.2806121,47.7864259 C15.2806121,47.456543 15.4464723,47.1333984 15.6523271,47.0642578 L20.7492952,45.3562498 C20.9945566,45.2742187 21.1948243,45.5018554 21.1948243,45.8654294 L21.1948243,52.5079099 Z M21.1948243,41.6475586 C21.1948243,42.0111326 20.9945571,42.3773438 20.7492952,42.4646486 L15.6523271,44.2792968 C15.4464723,44.352539 15.2806121,44.1442382 15.2806121,43.8143554 L15.2806121,37.7871096 C15.2806121,37.4572267 15.4464723,37.110059 15.6523271,37.0110355 L20.7492952,34.5609379 C20.9945566,34.4428709 21.1948243,34.641504 21.1948243,35.0050781 L21.1948243,41.6475586 Z M30.4403578,74.8517578 C30.4403578,75.261035 30.1868621,75.5721677 29.8769032,75.5469725 L23.5027522,75.0322262 C23.2477861,75.0114254 23.0428134,74.6973629 23.0428134,74.3305661 L23.0428134,67.6286131 C23.0428134,67.2618163 23.2477861,66.9553709 23.5027522,66.943945 L29.8769032,66.664453 C30.1868621,66.6506832 30.4403578,66.9711912 30.4403578,67.3801757 L30.4403578,74.8517578 L30.4403578,74.8517578 Z M30.4403578,62.6000976 C30.4403578,63.0093749 30.1868621,63.3574219 29.8769032,63.3773438 L23.5027522,63.7907227 C23.2477861,63.8071291 23.0428134,63.5229494 23.0428134,63.1561526 L23.0428134,56.4541997 C23.0428134,56.0871096 23.2477861,55.7507818 23.5027522,55.7024419 L29.8769032,54.4948248 C30.1868621,54.4359379 30.4403578,54.719532 30.4403578,55.128516 L30.4403578,62.6000976 L30.4403578,62.6000976 Z M30.4403578,50.3938478 C30.4403578,50.8028323 30.1868621,51.1877933 29.8769032,51.2531251 L23.5027522,52.5943358 C23.2477861,52.647949 23.0428134,52.3939454 23.0428134,52.0268554 L23.0428134,45.3249024 C23.0428134,44.9581056 23.2477861,44.5918944 23.5027522,44.5063478 L29.8769032,42.3703128 C30.1868621,42.2666016 30.4403578,42.5132813 30.4403578,42.9222658 L30.4403578,50.3938478 Z M30.4403578,38.1873048 C30.4403578,38.5965821 30.1868621,39.0181642 29.8769032,39.1286136 L23.5027522,41.3979494 C23.2477861,41.4887698 23.0428134,41.2643558 23.0428134,40.897559 L23.0428134,34.1956056 C23.0428134,33.8288088 23.2477861,33.4324219 23.5027522,33.309961 L29.8769032,30.2460936 C30.1868621,30.0969725 30.4403578,30.3067382 30.4403578,30.7157227 L30.4403578,38.1873048 L30.4403578,38.1873048 Z M42.2917205,61.6157227 C42.2917205,62.083008 41.9611764,62.4832032 41.5571126,62.5095706 L33.3593809,63.041016 C33.0358945,63.0618168 32.7756351,62.7439459 32.7756351,62.3308598 L32.7756351,54.7845706 C32.7756351,54.3714845 33.0358945,53.9871096 33.3593809,53.9258794 L41.5571126,52.372559 C41.9611764,52.2958013 42.2917205,52.6122077 42.2917205,53.0794925 L42.2917205,61.6157227 Z" id="Shape"></path>
            </g>
        </g>
    </g>
</svg>